<svg width="26" height="27" viewBox="0 0 26 27" fill="none" xmlns="http://www.w3.org/2000/svg">
<path d="M19.1167 0.536377H6.88589C3.50846 0.536377 0.770508 3.3753 0.770508 6.87729V19.5591C0.770508 23.0611 3.50846 25.9 6.88589 25.9H19.1167C22.4941 25.9 25.232 23.0611 25.232 19.5591V6.87729C25.232 3.3753 22.4941 0.536377 19.1167 0.536377Z" stroke="black" stroke-linecap="round" stroke-linejoin="round"/>
<path d="M17.8936 12.4192C18.0445 13.4747 17.8706 14.5526 17.3967 15.4997C16.9228 16.4467 16.1729 17.2147 15.2537 17.6944C14.3345 18.1742 13.2929 18.3411 12.2769 18.1716C11.261 18.0021 10.3224 17.5047 9.59479 16.7503C8.86716 15.9958 8.38749 15.0226 8.224 13.9692C8.06052 12.9158 8.22156 11.8357 8.6842 10.8827C9.14684 9.9296 9.88753 9.15206 10.8009 8.66064C11.7143 8.16922 12.7539 7.98894 13.7718 8.14545C14.8101 8.3051 15.7713 8.80676 16.5136 9.57635C17.2558 10.3459 17.7396 11.3426 17.8936 12.4192Z" stroke="black" stroke-linecap="round" stroke-linejoin="round"/>
<path d="M19.7283 6.24316H19.7405" stroke="black" stroke-linecap="round" stroke-linejoin="round"/>
</svg>
