<svg width="26" height="33" viewBox="0 0 26 33" fill="none" xmlns="http://www.w3.org/2000/svg">
<path d="M25.4615 13.6818C25.4615 23.5455 13.2308 32 13.2308 32C13.2308 32 1 23.5455 1 13.6818C1 10.3184 2.2886 7.09272 4.58231 4.71442C6.87602 2.33612 9.98697 1 13.2308 1C16.4746 1 19.5855 2.33612 21.8792 4.71442C24.1729 7.09272 25.4615 10.3184 25.4615 13.6818Z" stroke="black" stroke-linecap="round" stroke-linejoin="round"/>
<path d="M13.2307 17.9091C15.4824 17.9091 17.3077 16.0165 17.3077 13.6819C17.3077 11.3472 15.4824 9.45459 13.2307 9.45459C10.9791 9.45459 9.15381 11.3472 9.15381 13.6819C9.15381 16.0165 10.9791 17.9091 13.2307 17.9091Z" stroke="black" stroke-linecap="round" stroke-linejoin="round"/>
</svg>
