<svg width="27" height="23" viewBox="0 0 27 23" fill="none" xmlns="http://www.w3.org/2000/svg">
<path d="M25.6188 1.08435C24.554 1.8631 23.3751 2.45872 22.1274 2.84827C21.4578 2.04991 20.5678 1.48405 19.5779 1.22722C18.588 0.970396 17.5459 1.035 16.5925 1.41229C15.6392 1.78958 14.8206 2.46136 14.2475 3.33677C13.6743 4.21218 13.3743 5.24898 13.388 6.30695V7.45984C11.434 7.51238 9.4978 7.06303 7.75184 6.15182C6.00589 5.24062 4.50436 3.89583 3.381 2.23724C3.381 2.23724 -1.06655 12.6133 8.94044 17.2248C6.65054 18.8365 3.92267 19.6447 1.15723 19.5306C11.1642 25.2951 23.395 19.5306 23.395 6.27236C23.394 5.95123 23.3642 5.63089 23.306 5.31546C24.4408 4.15507 25.2416 2.69 25.6188 1.08435V1.08435Z" stroke="black" stroke-linecap="round" stroke-linejoin="round"/>
</svg>
