<svg width="26" height="20" viewBox="0 0 26 20" fill="none" xmlns="http://www.w3.org/2000/svg">
<path d="M24.8772 3.55353C24.7451 3.0064 24.4761 2.50511 24.0974 2.10027C23.7187 1.69544 23.2436 1.4014 22.7202 1.24786C20.8079 0.763672 13.1585 0.763672 13.1585 0.763672C13.1585 0.763672 5.50911 0.763672 3.59676 1.29397C3.07337 1.44751 2.59831 1.74155 2.21959 2.14639C1.84087 2.55122 1.57188 3.05252 1.43981 3.59964C1.08982 5.61197 0.918626 7.65336 0.92837 9.69812C0.915894 11.7583 1.0871 13.8152 1.43981 15.8427C1.58542 16.3728 1.86042 16.8551 2.23827 17.2428C2.61611 17.6306 3.08401 17.9107 3.59676 18.0562C5.50911 18.5865 13.1585 18.5865 13.1585 18.5865C13.1585 18.5865 20.8079 18.5865 22.7202 18.0562C23.2436 17.9026 23.7187 17.6086 24.0974 17.2037C24.4761 16.7989 24.7451 16.2976 24.8772 15.7505C25.2245 13.7533 25.3957 11.7275 25.3886 9.69812C25.4011 7.63796 25.2299 5.58101 24.8772 3.55353V3.55353Z" stroke="black" stroke-linecap="round" stroke-linejoin="round"/>
<path d="M10.6567 13.4679L17.0498 9.69811L10.6567 5.92834V13.4679Z" stroke="black" stroke-linecap="round" stroke-linejoin="round"/>
</svg>
